<svg xmlns="http://www.w3.org/2000/svg" xmlns:xlink="http://www.w3.org/1999/xlink" width="400" zoomAndPan="magnify" viewBox="0 0 300 149.999998" height="200" preserveAspectRatio="xMidYMid meet" version="1.2"><defs><clipPath id="3482fef963"><path d="M 13 17.601562 L 94 17.601562 L 94 132.351562 L 13 132.351562 Z M 13 17.601562 "/></clipPath></defs><g id="84a344833f"><g style="fill:#ffffff;fill-opacity:1;"><g transform="translate(106.760593, 78.760711)"><path style="stroke:none" d="M 30.015625 -27.484375 L 25.578125 -24.671875 L 31.171875 -5.125 L 30.390625 -2.53125 L 21.296875 0.109375 L 16.4375 -18.921875 L 12.625 -16.484375 L 12.09375 -1.265625 L 1.0625 -0.21875 L 1.375 -42.375 L 13.53125 -42.375 L 13.109375 -29.375 L 19.921875 -33.71875 L 20.5625 -42.4375 L 31.65625 -42.0625 Z M 30.015625 -27.484375 "/></g></g><g style="fill:#ffffff;fill-opacity:1;"><g transform="translate(138.945871, 78.760711)"><path style="stroke:none" d="M 21.9375 -42.015625 L 31.078125 -42.28125 L 30.546875 -3.96875 L 28.59375 -0.21875 L 5.171875 -0.046875 L 1.6875 -2.0625 L 1.0625 -42.4375 L 10.140625 -42.4375 L 12.15625 -40.578125 L 12.78125 -10.09375 L 19.703125 -9.625 L 20.03125 -40 Z M 21.9375 -42.015625 "/></g></g><g style="fill:#ffffff;fill-opacity:1;"><g transform="translate(171.078316, 78.760711)"><path style="stroke:none" d="M 1.0625 -42.171875 L 30.75 -42.171875 L 30.28125 -31.859375 L 21.875 -31.5 L 20.71875 -0.890625 L 9.671875 0.15625 L 9.9375 -31.546875 L 1.109375 -31.96875 Z M 1.0625 -42.171875 "/></g></g><g style="fill:#ffffff;fill-opacity:1;"><g transform="translate(202.365156, 78.760711)"><path style="stroke:none" d="M 28.796875 -11.78125 L 26.046875 -11.46875 L 29.75 -3.90625 L 28.859375 -2.109375 L 20.71875 0 L 14.84375 -10.734375 L 12.265625 -10.625 L 11.78125 -1.0625 L 1.0625 -0.15625 L 1.0625 -42.375 L 28.75 -40.6875 L 30.8125 -38.625 L 30.859375 -15.328125 Z M 19.703125 -20.65625 L 19.765625 -32.5 L 12.78125 -33.1875 L 12.53125 -20.140625 Z M 19.703125 -20.65625 "/></g></g><g style="fill:#ffffff;fill-opacity:1;"><g transform="translate(233.75769, 78.760711)"><path style="stroke:none" d="M 31.015625 -37.46875 L 31.8125 -0.109375 L 20.828125 0.109375 L 20.5 -13.046875 L 12.09375 -12.53125 L 11.25 -0.15625 L 1.0625 0.046875 L 2.6875 -38.734375 L 4.75 -41.21875 L 27.796875 -42.21875 Z M 20.453125 -21.078125 L 20.1875 -31.59375 L 13.21875 -31.015625 L 12.6875 -21.609375 Z M 20.453125 -21.078125 "/></g></g><g style="fill:#ffffff;fill-opacity:1;"><g transform="translate(266.101515, 78.760711)"><path style="stroke:none" d="M 26.6875 -9.984375 L 27.90625 0.046875 L 1.0625 0.046875 L 1.421875 -42.375 L 12.734375 -41.6875 L 12.15625 -10.140625 Z M 26.6875 -9.984375 "/></g></g><g style="fill:#ffffff;fill-opacity:1;"><g transform="translate(106.760593, 121.99564)"><path style="stroke:none" d="M 19.96875 -24.046875 C 21.382812 -24.046875 22.09375 -23.410156 22.09375 -22.140625 C 22.09375 -20.410156 21.984375 -19.226562 21.765625 -18.59375 C 21.554688 -17.96875 21.015625 -17.65625 20.140625 -17.65625 L 9.78125 -17.65625 L 9.78125 -6.390625 L 21.984375 -6.390625 C 22.828125 -6.359375 23.40625 -6.191406 23.71875 -5.890625 C 24.039062 -5.585938 24.203125 -5.140625 24.203125 -4.546875 C 24.203125 -2.816406 24.039062 -1.625 23.71875 -0.96875 C 23.40625 -0.320312 22.773438 0 21.828125 0 L 3.21875 0 L 2.375 -0.84375 L 2.375 -39.734375 L 21.140625 -39.734375 C 22.648438 -39.703125 23.40625 -39.140625 23.40625 -38.046875 C 23.375 -37.097656 23.320312 -36.347656 23.25 -35.796875 C 23.175781 -35.253906 22.953125 -34.71875 22.578125 -34.1875 C 22.210938 -33.65625 21.679688 -33.390625 20.984375 -33.390625 L 9.1875 -33.390625 L 9.78125 -24.046875 Z M 19.96875 -24.046875 "/></g></g><g style="fill:#ffffff;fill-opacity:1;"><g transform="translate(132.28686, 121.99564)"><path style="stroke:none" d="M 17.0625 -19.96875 L 16.75 -20.078125 L 14.75 -21.078125 C 13.226562 -21.679688 11.921875 -21.984375 10.828125 -21.984375 C 9.242188 -21.910156 8.453125 -21.148438 8.453125 -19.703125 C 8.453125 -19.140625 8.757812 -18.679688 9.375 -18.328125 C 9.988281 -17.984375 10.488281 -17.710938 10.875 -17.515625 C 11.269531 -17.328125 11.835938 -17.054688 12.578125 -16.703125 C 15.222656 -15.566406 17.1875 -14.3125 18.46875 -12.9375 C 19.75 -11.570312 20.390625 -10.21875 20.390625 -8.875 C 20.390625 -5.945312 19.613281 -3.59375 18.0625 -1.8125 C 16.519531 -0.0390625 14.414062 0.84375 11.75 0.84375 C 9.09375 0.84375 7.003906 0.492188 5.484375 -0.203125 C 3.972656 -0.910156 2.707031 -1.914062 1.6875 -3.21875 C 1.550781 -3.289062 1.484375 -3.394531 1.484375 -3.53125 C 1.484375 -3.675781 1.507812 -3.851562 1.5625 -4.0625 C 1.613281 -4.28125 2.023438 -4.851562 2.796875 -5.78125 C 3.578125 -6.71875 4.195312 -7.1875 4.65625 -7.1875 C 4.789062 -7.1875 4.929688 -7.113281 5.078125 -6.96875 C 6.941406 -5.488281 8.753906 -4.75 10.515625 -4.75 C 11.503906 -4.75 12.242188 -5.03125 12.734375 -5.59375 C 13.222656 -6.164062 13.46875 -6.785156 13.46875 -7.453125 C 13.46875 -8.117188 13.1875 -8.660156 12.625 -9.078125 C 12.0625 -9.503906 11.363281 -9.921875 10.53125 -10.328125 C 9.707031 -10.734375 9.257812 -10.953125 9.1875 -10.984375 C 9.125 -11.023438 9.03125 -11.078125 8.90625 -11.140625 C 8.78125 -11.210938 8.664062 -11.269531 8.5625 -11.3125 C 6.757812 -12.1875 5.234375 -13.285156 3.984375 -14.609375 C 2.734375 -15.929688 2.109375 -17.40625 2.109375 -19.03125 C 2.109375 -21.84375 2.835938 -23.882812 4.296875 -25.15625 C 5.765625 -26.425781 8.082031 -27.0625 11.25 -27.0625 C 12.445312 -27.0625 13.59375 -26.921875 14.6875 -26.640625 C 16.164062 -26.242188 17.222656 -25.785156 17.859375 -25.265625 L 17.90625 -25.265625 C 18.195312 -25.085938 18.367188 -24.875 18.421875 -24.625 C 18.472656 -24.375 18.445312 -23.847656 18.34375 -23.046875 C 17.988281 -20.992188 17.5625 -19.96875 17.0625 -19.96875 Z M 17.0625 -19.96875 "/></g></g><g style="fill:#ffffff;fill-opacity:1;"><g transform="translate(154.219365, 121.99564)"><path style="stroke:none" d="M 4.921875 -21.984375 L 0.6875 -21.984375 C 0.257812 -21.984375 0.0195312 -22.078125 -0.03125 -22.265625 C -0.0820312 -22.460938 -0.109375 -22.6875 -0.109375 -22.9375 C -0.109375 -24.445312 0.15625 -25.253906 0.6875 -25.359375 L 4.921875 -26.203125 L 7.875 -32.1875 C 8.300781 -32.707031 9.109375 -32.96875 10.296875 -32.96875 C 10.617188 -32.96875 10.921875 -32.332031 11.203125 -31.0625 C 11.484375 -29.800781 11.78125 -28.179688 12.09375 -26.203125 L 17.171875 -26.203125 C 17.734375 -26.203125 18.015625 -25.5 18.015625 -24.09375 C 18.015625 -22.6875 17.734375 -21.984375 17.171875 -21.984375 L 12.046875 -21.984375 L 12.046875 -5.171875 L 12.890625 0.796875 L 12.890625 0.84375 C 12.929688 1.050781 12.929688 1.191406 12.890625 1.265625 C 12.710938 1.546875 11.832031 1.6875 10.25 1.6875 C 8.664062 1.6875 7.710938 1.367188 7.390625 0.734375 L 4.921875 -4.28125 Z M 4.921875 -21.984375 "/></g></g><g style="fill:#ffffff;fill-opacity:1;"><g transform="translate(172.029616, 121.99564)"><path style="stroke:none" d="M 9.78125 0.84375 C 7.164062 0.84375 5.25 0.0351562 4.03125 -1.578125 C 2.820312 -3.203125 2.21875 -6.054688 2.21875 -10.140625 L 2.21875 -26.203125 C 2.21875 -26.773438 2.859375 -27.0625 4.140625 -27.0625 C 5.429688 -27.0625 6.691406 -26.972656 7.921875 -26.796875 C 9.160156 -26.617188 9.78125 -26.421875 9.78125 -26.203125 L 9.828125 -10.140625 C 9.828125 -6.203125 10.109375 -4.234375 10.671875 -4.234375 C 11.941406 -4.234375 13.632812 -4.863281 15.75 -6.125 L 15.75 -26.203125 C 15.75 -26.773438 16.390625 -27.0625 17.671875 -27.0625 C 18.960938 -27.0625 20.234375 -26.972656 21.484375 -26.796875 C 22.734375 -26.617188 23.359375 -26.421875 23.359375 -26.203125 L 23.359375 0 C 23.359375 0.207031 23.320312 0.347656 23.25 0.421875 C 23.113281 0.703125 22.207031 0.84375 20.53125 0.84375 C 18.851562 0.84375 17.820312 0.5625 17.4375 0 L 16.328125 -1.640625 C 13.859375 0.015625 11.675781 0.84375 9.78125 0.84375 Z M 9.78125 0.84375 "/></g></g><g style="fill:#ffffff;fill-opacity:1;"><g transform="translate(197.767281, 121.99564)"><path style="stroke:none" d="M 8.453125 0.84375 C 5.847656 0.84375 3.9375 -0.21875 2.71875 -2.34375 C 1.5 -4.476562 0.890625 -8.1875 0.890625 -13.46875 C 0.890625 -18.757812 1.65625 -22.347656 3.1875 -24.234375 C 4.726562 -26.117188 7.628906 -27.0625 11.890625 -27.0625 L 14.421875 -27.0625 L 14.421875 -39.734375 C 14.421875 -40.296875 15.035156 -40.578125 16.265625 -40.578125 C 17.503906 -40.578125 18.53125 -40.5 19.34375 -40.34375 C 20.15625 -40.1875 20.578125 -39.984375 20.609375 -39.734375 L 21.5 -22.875 L 21.5 0 C 21.5 0.207031 21.484375 0.347656 21.453125 0.421875 C 21.273438 0.703125 20.625 0.84375 19.5 0.84375 C 18.375 0.84375 17.414062 0.765625 16.625 0.609375 C 15.832031 0.453125 15.4375 0.25 15.4375 0 L 14.421875 -1.640625 C 13.398438 -0.972656 12.679688 -0.5 12.265625 -0.21875 C 11.097656 0.488281 9.828125 0.84375 8.453125 0.84375 Z M 11.890625 -21.984375 C 10.585938 -21.984375 9.695312 -21.445312 9.21875 -20.375 C 8.75 -19.300781 8.515625 -17.484375 8.515625 -14.921875 C 8.515625 -12.367188 8.519531 -10.6875 8.53125 -9.875 C 8.550781 -9.070312 8.578125 -8.140625 8.609375 -7.078125 C 8.679688 -5.179688 8.929688 -4.234375 9.359375 -4.234375 C 10.617188 -4.234375 12.304688 -4.863281 14.421875 -6.125 L 14.421875 -21.984375 Z M 11.890625 -21.984375 "/></g></g><g style="fill:#ffffff;fill-opacity:1;"><g transform="translate(221.602367, 121.99564)"><path style="stroke:none" d="M 2.484375 0 L 2.484375 -26.203125 C 2.484375 -26.773438 3.113281 -27.0625 4.375 -27.0625 C 5.644531 -27.0625 6.84375 -26.972656 7.96875 -26.796875 C 9.101562 -26.617188 9.671875 -26.421875 9.671875 -26.203125 L 9.671875 0 C 9.671875 0.207031 9.65625 0.347656 9.625 0.421875 C 9.445312 0.703125 8.773438 0.84375 7.609375 0.84375 C 6.441406 0.84375 5.296875 0.753906 4.171875 0.578125 C 3.046875 0.398438 2.484375 0.207031 2.484375 0 Z M 5.75 -32.96875 C 3.21875 -32.96875 1.953125 -34.234375 1.953125 -36.765625 C 1.953125 -39.304688 3.21875 -40.578125 5.75 -40.578125 C 8.289062 -40.578125 9.5625 -39.304688 9.5625 -36.765625 C 9.5625 -34.234375 8.289062 -32.96875 5.75 -32.96875 Z M 5.75 -32.96875 "/></g></g><g style="fill:#ffffff;fill-opacity:1;"><g transform="translate(233.599183, 121.99564)"><path style="stroke:none" d="M 1.953125 -13.21875 C 1.953125 -17.050781 2.285156 -19.953125 2.953125 -21.921875 C 3.628906 -23.898438 4.6875 -25.25 6.125 -25.96875 C 7.570312 -26.695312 9.703125 -27.0625 12.515625 -27.0625 C 15.335938 -27.0625 17.46875 -26.695312 18.90625 -25.96875 C 20.351562 -25.25 21.410156 -23.898438 22.078125 -21.921875 C 22.753906 -19.953125 23.09375 -17.050781 23.09375 -13.21875 C 23.09375 -7.925781 22.332031 -4.257812 20.8125 -2.21875 C 19.300781 -0.175781 16.535156 0.84375 12.515625 0.84375 C 8.503906 0.84375 5.738281 -0.175781 4.21875 -2.21875 C 2.707031 -4.257812 1.953125 -7.925781 1.953125 -13.21875 Z M 9.140625 -13.21875 C 9.140625 -7.289062 9.703125 -4.328125 10.828125 -4.328125 C 12.378906 -4.328125 13.523438 -4.578125 14.265625 -5.078125 C 14.648438 -5.359375 14.914062 -5.867188 15.0625 -6.609375 C 15.34375 -8.085938 15.484375 -10.289062 15.484375 -13.21875 C 15.484375 -19.0625 14.921875 -21.984375 13.796875 -21.984375 C 11.679688 -21.984375 10.375 -21.5 9.875 -20.53125 C 9.382812 -19.5625 9.140625 -17.125 9.140625 -13.21875 Z M 9.140625 -13.21875 "/></g></g><g clip-rule="nonzero" clip-path="url(#3482fef963)"><path style=" stroke:none;fill-rule:nonzero;fill:#ffffff;fill-opacity:1;" d="M 51.125 100.3125 C 39.828125 104.085938 35.496094 114.453125 33.914062 120.089844 C 22.242188 92.929688 71.691406 88.851562 55.527344 52.445312 C 67.289062 61.554688 77.027344 80.699219 56.320312 109.257812 C 45.511719 124.140625 56.226562 132.109375 68.152344 129.546875 C 83.269531 126.308594 102.53125 99.3125 89.347656 72.734375 C 88.511719 82.355469 84.527344 94.488281 76.746094 98.261719 C 96.011719 53.703125 50.800781 42.804688 59.742188 17.601562 C 38.082031 29.222656 41.527344 57.78125 41.527344 57.78125 C 37.453125 45.527344 26.457031 42.710938 26.457031 42.710938 C 26.457031 42.710938 32.816406 57.828125 20.796875 75.039062 C 7.382812 94.28125 11.667969 126.9375 50.777344 132.199219 C 38.082031 124.304688 43.4375 110.65625 51.125 100.3125 Z M 27.0625 81.84375 C 31.117188 75.648438 33.867188 71.429688 34.496094 63.699219 C 34.496094 63.699219 41.085938 74.527344 36.054688 84.777344 C 32.304688 92.417969 24.128906 95.5625 25.386719 107.277344 C 20.566406 97.214844 22.546875 88.738281 27.0625 81.84375 Z M 27.0625 81.84375 "/></g></g></svg>